SplineFontDB: 3.0
FontName: forsythe-book
FullName: Forsythe
FamilyName: Forsythe
Weight: Book
Copyright: Copyright (c) 2012, Tristen Brown <tristen.brown@gmail.com>, with Reserved Font Name: 'Forsyhe'.\n\nThis Font Software is licensed under the SIL Open Font License, Version 1.0.\nThe license available with a FAQ at:\nhttp://scripts.sil.org/OFL\n\nSeptember 2012
UComments: "2012-9-15: Created." 
Version: 001.000
ItalicAngle: 0
UnderlinePosition: -100
UnderlineWidth: 50
Ascent: 800
Descent: 200
LayerCount: 2
Layer: 0 0 "Back"  1
Layer: 1 0 "Fore"  0
XUID: [1021 562 2126814528 16413965]
FSType: 0
OS2Version: 0
OS2_WeightWidthSlopeOnly: 0
OS2_UseTypoMetrics: 1
CreationTime: 1347737418
ModificationTime: 1349022026
OS2TypoAscent: 0
OS2TypoAOffset: 1
OS2TypoDescent: 0
OS2TypoDOffset: 1
OS2TypoLinegap: 90
OS2WinAscent: 0
OS2WinAOffset: 1
OS2WinDescent: 0
OS2WinDOffset: 1
HheadAscent: 0
HheadAOffset: 1
HheadDescent: 0
HheadDOffset: 1
Lookup: 258 0 0 "Latin Kerning"  {"Latin Kerning-1" [150,15,2] } ['kern' ('latn' <'dflt' > ) ]
MarkAttachClasses: 1
DEI: 91125
Encoding: ISO8859-1
UnicodeInterp: none
NameList: Adobe Glyph List
DisplaySize: -24
AntiAlias: 1
FitToEm: 1
WinInfo: 0 38 11
BeginPrivate: 0
EndPrivate
BeginChars: 256 95

StartChar: exclam
Encoding: 33 33 0
Width: 104
VWidth: -200
Flags: W
HStem: -200 80<20 84> 580 20G<20 84> 580 20G<20 84>
VStem: 20 64<-200 -120 -72 600>
LayerCount: 2
Fore
SplineSet
20 600 m 1xd0
 84 600 l 1
 84 -72 l 1
 20 -72 l 1
 20 600 l 1xd0
20 -120 m 1
 84 -120 l 1
 84 -200 l 1
 20 -200 l 1
 20 -120 l 1
EndSplineSet
Validated: 1
EndChar

StartChar: quotedbl
Encoding: 34 34 1
Width: 216
VWidth: -200
Flags: W
HStem: 456 144<20 84 132 196>
VStem: 20 64<456 600> 132 64<456 600>
LayerCount: 2
Fore
SplineSet
20 600 m 1
 84 600 l 1
 84 456 l 1
 20 456 l 1
 20 600 l 1
132 600 m 1
 196 600 l 1
 196 456 l 1
 132 456 l 1
 132 600 l 1
EndSplineSet
Validated: 1
EndChar

StartChar: numbersign
Encoding: 35 35 2
Width: 408
VWidth: -200
Flags: W
HStem: -200 21G<84 148 260 324> -200 21G<84 148 260 324> 72 64<20 84 148 260 324 388> 264 64<20 84 148 260 324 388> 580 20G<84 148 260 324> 580 20G<84 148 260 324>
VStem: 84 64<-200 72 136 264 328 600> 260 64<-200 72 136 264 328 600>
LayerCount: 2
Fore
SplineSet
84 600 m 1xbb
 148 600 l 1
 148 328 l 1
 260 328 l 1
 260 600 l 1
 324 600 l 1
 324 328 l 1
 388 328 l 1
 388 264 l 1
 324 264 l 1
 324 136 l 1
 388 136 l 1
 388 72 l 1
 324 72 l 1
 324 -200 l 1
 260 -200 l 1
 260 72 l 1
 148 72 l 1
 148 -200 l 1
 84 -200 l 1
 84 72 l 1
 20 72 l 1
 20 136 l 1
 84 136 l 1
 84 264 l 1
 20 264 l 1
 20 328 l 1
 84 328 l 1
 84 600 l 1xbb
148 264 m 1
 148 136 l 1
 260 136 l 1
 260 264 l 1
 148 264 l 1
EndSplineSet
Validated: 1
EndChar

StartChar: I
Encoding: 73 73 3
Width: 104
VWidth: -200
Flags: W
HStem: -200 21G<20 84> -200 21G<20 84> 580 20G<20 84> 580 20G<20 84>
VStem: 20 64<-200 600>
LayerCount: 2
Fore
SplineSet
20 600 m 5xa8
 84 600 l 5
 84 -200 l 5
 20 -200 l 5
 20 600 l 5xa8
EndSplineSet
Validated: 1
EndChar

StartChar: dollar
Encoding: 36 36 4
Width: 264
VWidth: -200
Flags: W
HStem: -200 21G<100 164> -200 21G<100 164> -104 64<84.0663 100 164 179.938> 152 64<84.0641 179.936> 440 64<84.0625 100 164 179.938> 580 20G<100 164> 580 20G<100 164>
VStem: 20 64<-39.911 56 216.062 439.938> 100 64<-200 -104 504 600> 180 63.5<-39.9375 151.938 344 439.938>
LayerCount: 2
Fore
SplineSet
100 600 m 1xbdc0
 164 600 l 1
 164 504 l 1
 180 504 l 2
 211.96484375 504 243.5 472 243.5 440 c 2
 244 344 l 1
 180 344 l 1
 180 408 l 2
 180 440 180 440 148 440 c 2
 116 440 l 2
 84 440 84 440 84 408 c 2
 84 296 l 1
 84 248 l 2
 84 216 84.0380859375 216 116 216 c 2
 180 216 l 2
 211.96484375 216 243.5 184 243.5 152 c 2
 243.5 -40 l 2
 243.498046875 -72 211.96484375 -104 180 -104 c 2
 164 -104 l 1
 164 -200 l 1
 100 -200 l 1
 100 -104 l 1
 84 -104 l 2
 52.03515625 -104 20 -72 20 -40 c 2
 20.5 56 l 1
 84 56 l 1
 84 -8 l 2
 84 -40 84.009765625 -40 117.71875 -40 c 2
 148 -40 l 2
 180 -40 180 -40 180 -8 c 2
 180 24 l 1
 180 72 l 1
 180 120 l 2
 180 152 179.96484375 152 148 152 c 2
 84 152 l 2
 52.03515625 152 20 184 20 216 c 2
 20 440 l 2
 20 472 52.03515625 504 84 504 c 2
 100 504 l 1
 100 600 l 1xbdc0
EndSplineSet
Validated: 524289
EndChar

StartChar: percent
Encoding: 37 37 5
Width: 264
VWidth: -200
Flags: W
HStem: -200 96<180 244> 504 96<20 84>
VStem: 20 64<504 600> 180 64<-200 -104>
LayerCount: 2
Fore
SplineSet
20 600 m 5
 84 600 l 5
 84 504 l 5
 20 504 l 5
 20 600 l 5
180 600 m 5
 244 600 l 5
 84 -200 l 5
 20 -200 l 5
 180 600 l 5
180 -104 m 5
 244 -104 l 5
 244 -200 l 5
 180 -200 l 5
 180 -104 l 5
EndSplineSet
Validated: 1
EndChar

StartChar: ampersand
Encoding: 38 38 6
Width: 328
VWidth: -200
Flags: W
HStem: -200 64<84.089 195.938> 152 64<84 196 260 308> 536 64<84.0605 228>
VStem: 20 64<-135.933 152 216 535.958> 196 64<-135.938 152 216 296>
LayerCount: 2
Fore
SplineSet
84 600 m 6
 228 600 l 5
 228 536 l 5
 115 536 l 6
 84 536 84 536 84 504 c 6
 84 216 l 5
 196 216 l 5
 196 296 l 5
 260 296 l 5
 260 216 l 5
 308 216 l 5
 308 152 l 5
 260 152 l 5
 260 -136 l 6
 260 -168 228 -200 196 -200 c 6
 84 -200 l 6
 52 -200 20 -168 20 -136 c 6
 20 152 l 5
 84 184 l 5
 20 216 l 5
 20 536 l 6
 20 568 52 600 84 600 c 6
84 152 m 5
 84 -102.0625 l 6
 84 -135.98828125 84 -136 116 -136 c 6
 164 -136 l 6
 196 -136 196 -136 196 -104 c 6
 196 152 l 5
 84 152 l 5
EndSplineSet
Validated: 524289
EndChar

StartChar: quotesingle
Encoding: 39 39 7
Width: 104
VWidth: -200
Flags: W
HStem: 456 144<20 84>
VStem: 20 64<456 600>
LayerCount: 2
Fore
SplineSet
20 600 m 5
 84 600 l 5
 84 456 l 5
 20 456 l 5
 20 600 l 5
EndSplineSet
Validated: 1
EndChar

StartChar: parenleft
Encoding: 40 40 8
Width: 200
VWidth: -200
Flags: W
HStem: -200 64<84.0632 180> 536 64<84.0706 180>
VStem: 20 160<-181.113 -136 536 581.455> 20 64<-135.938 535.954>
LayerCount: 2
Fore
SplineSet
84 600 m 6xd0
 180 600 l 5
 180 536 l 5xe0
 115.5625 536 l 6
 115.044921875 536 l 0
 84.2421875 536 84 535.828125 84 504.712890625 c 0
 84 504 l 6
 84 -104 l 6xd0
 84 -136 84.013671875 -136 116.09375 -136 c 6
 180 -136 l 5
 180 -200 l 5xe0
 84 -200 l 6xd0
 52 -200 20 -168 20 -136 c 6
 20 539 l 6
 20 539.002929688 l 0xe0
 20 568.001953125 52.0009765625 600 84 600 c 6xd0
EndSplineSet
Validated: 524289
EndChar

StartChar: parenright
Encoding: 41 41 9
Width: 200
VWidth: -200
Flags: W
HStem: -200 64<20 115.927> 536 64<20 115.902>
VStem: 20 160<-181.113 -136 536 581.455> 116 64<-135.936 535.935>
LayerCount: 2
Fore
SplineSet
20 600 m 5xe0
 116 600 l 6xd0
 147.999023438 600 180 568.001953125 180 539.002929688 c 0
 180 539 l 6
 180 -136 l 6xe0
 180 -168 148 -200 116 -200 c 6xd0
 20 -200 l 5
 20 -136 l 5xe0
 84 -136 l 6
 115.75390625 -136 116 -135.999023438 116 -103.267578125 c 0
 116 -102.5 l 6
 116 502.4375 l 6
 116 502.984375 l 0xd0
 116 535.998046875 115.825195312 536 84.0107421875 536 c 0
 84 536 l 6
 20 536 l 5
 20 600 l 5xe0
EndSplineSet
Validated: 524289
EndChar

StartChar: asterisk
Encoding: 42 42 10
Width: 232
VWidth: -200
Flags: W
HStem: 408 192<100 132>
VStem: 100 33<408 472 536 600>
LayerCount: 2
Fore
SplineSet
100 600 m 5
 133 600 l 5
 132 536 l 5
 196 568 l 5
 212 536 l 5
 148 504 l 5
 212 472 l 5
 196 440 l 5
 132 472 l 5
 133 408 l 5
 100 408 l 5
 100 472 l 5
 36 440 l 5
 20 472 l 5
 84 504 l 5
 20 536 l 5
 36 568 l 5
 100 536 l 5
 100 600 l 5
EndSplineSet
Validated: 1
EndChar

StartChar: plus
Encoding: 43 43 11
Width: 392
VWidth: -200
Flags: W
HStem: 172 64<20 164 228 372>
VStem: 164 64<28 172 236 380>
LayerCount: 2
Fore
SplineSet
164 380 m 5
 228 380 l 5
 228 236 l 5
 372 236 l 5
 372 172 l 5
 228 172 l 5
 228 28 l 5
 164 28 l 5
 164 172 l 5
 20 172 l 5
 20 236 l 5
 164 236 l 5
 164 380 l 5
EndSplineSet
Validated: 1
EndChar

StartChar: comma
Encoding: 44 44 12
Width: 136
VWidth: -200
Flags: W
HStem: -312 112
VStem: 20 96<-280 -232>
LayerCount: 2
Fore
SplineSet
116 -200 m 1
 116 -280 l 1
 20 -312 l 1
 20 -232 l 1
 116 -200 l 1
EndSplineSet
Validated: 1
EndChar

StartChar: hyphen
Encoding: 45 45 13
Width: 312
VWidth: -400
Flags: W
HStem: 152 64<20 292>
VStem: 20 272<152 216>
LayerCount: 2
Fore
SplineSet
20 216 m 5
 292 216 l 5
 292 152 l 5
 20 152 l 5
 20 216 l 5
EndSplineSet
Validated: 1
EndChar

StartChar: period
Encoding: 46 46 14
Width: 104
VWidth: -200
Flags: W
HStem: -200 80<20 84>
VStem: 20 64<-200 -120>
LayerCount: 2
Fore
SplineSet
20 -120 m 5
 84 -120 l 5
 84 -200 l 5
 20 -200 l 5
 20 -120 l 5
EndSplineSet
Validated: 1
EndChar

StartChar: slash
Encoding: 47 47 15
Width: 279
VWidth: -200
Flags: W
HStem: -200.031 21G<20 87.4> -200.031 21G<20 87.4> 579.969 20G<191.6 259> 579.969 20G<191.6 259>
VStem: 20 239
LayerCount: 2
Fore
SplineSet
196 599.96875 m 5xa8
 259 599.96875 l 5
 83 -200.03125 l 5
 20 -200.03125 l 5
 196 599.96875 l 5xa8
EndSplineSet
Validated: 524289
EndChar

StartChar: zero
Encoding: 48 48 16
Width: 280
VWidth: -200
Flags: W
HStem: -200 64<84.0711 195.929> 536.004 63.9961<84.0476 195.963>
VStem: 20 64<-135.937 535.954> 196 64<-135.937 535.934>
LayerCount: 2
Fore
SplineSet
84 600 m 6
 196 600 l 6
 228.025390625 600 260 568 260 536 c 6
 260 -136 l 6
 260 -168 228.025390625 -200 196 -200 c 6
 84 -200 l 6
 51.974609375 -200 20 -168 20 -136 c 6
 20 536 l 6
 20 568 51.974609375 600 84 600 c 6
110.28125 536 m 4
 84.4423828125 535.887695312 83.9990234375 534.125 83.9990234375 506.985351562 c 0
 83.9990234375 506.022460938 84 505.02734375 84 504 c 6
 84 -104 l 6
 84 -135.998046875 84.2099609375 -136 115.98828125 -136 c 0
 116 -136 l 6
 164 -136 l 6
 164.01171875 -136 l 0
 195.791992188 -136 196 -135.998046875 196 -104 c 6
 196 504 l 6
 196 505.03125 196.000976562 506.029296875 196.000976562 506.99609375 c 0
 196.000976562 535.76953125 195.500976562 536 164.739257812 536 c 0
 164 536 l 6
 116 536 l 6
 114.643554688 536 113.34765625 536.00390625 112.104492188 536.00390625 c 0
 111.483398438 536.00390625 110.875976562 536.002929688 110.28125 536 c 4
EndSplineSet
Validated: 524289
EndChar

StartChar: one
Encoding: 49 49 17
Width: 152
VWidth: -200
Flags: W
HStem: -200 21G<68 132> -200 21G<68 132> 536 64<20 68>
VStem: 20 112<536 600> 68 64<-200 536>
LayerCount: 2
Fore
SplineSet
20 600 m 5xb0
 68 600 l 5xa8
 132 600 l 5xb0
 132 -200 l 5
 68 -200 l 5
 68 536 l 5xa8
 20 536 l 5
 20 600 l 5xb0
EndSplineSet
Validated: 1
EndChar

StartChar: two
Encoding: 50 50 18
Width: 248
VWidth: -200
Flags: W
HStem: -200 64<84.1938 227.812> 152 64<84.1399 164.515> 536 64<20 163.78>
VStem: 20.3125 63.5938<-135.624 151.938> 163.781 64.2812<216.055 535.955>
LayerCount: 2
Fore
SplineSet
20 600 m 5
 164.125 600 l 6
 196.08984375 600 228.0625 568 228.0625 536 c 6
 228.0625 208 l 6
 228.0625 176 196.24609375 152 164.28125 152 c 6
 116.0625 152 l 6
 84.09765625 152 84.109375 152 84.0625 120 c 6
 83.90625 -96 l 6
 84.06640625 -136 84.0947265625 -136 116.0625 -136 c 6
 228.0625 -136 l 5
 227.8125 -200 l 5
 84.0625 -200 l 6
 52.09765625 -200 20.349609375 -160 20.3125 -128 c 6
 20 152 l 6
 20 184 51.97265625 216 83.9375 216 c 6
 132 216 l 6
 158.821289062 216 164.51953125 216.044921875 164.51953125 234.931640625 c 0
 164.51953125 238.551757812 164.309570312 242.86328125 164 248 c 5
 163.78125 384 l 5
 163.78125 512 l 6
 163.78125 512.795898438 l 0
 163.78125 535.998046875 163.604492188 536 132.015625 536 c 0
 132 536 l 6
 20 536 l 5
 20 600 l 5
EndSplineSet
Validated: 524289
EndChar

StartChar: three
Encoding: 51 51 19
Width: 248
VWidth: -200
Flags: W
HStem: -200 64<20 164> 152 64<20 164> 536 64<20 164>
VStem: 164 64<-136 152 216 536>
LayerCount: 2
Fore
SplineSet
20 600 m 5
 164 600 l 6
 196 600 228 568 228 536 c 6
 228 216 l 5
 180 184 l 5
 228 152 l 5
 228 -136 l 6
 228 -168 196 -200 164 -200 c 6
 20 -200 l 5
 20 -136 l 5
 164 -136 l 5
 164 152 l 5
 20 152 l 5
 20 216 l 5
 164 216 l 5
 164 536 l 5
 20 536 l 5
 20 600 l 5
EndSplineSet
Validated: 1
EndChar

StartChar: four
Encoding: 52 52 20
Width: 280
VWidth: -200
Flags: W
HStem: -200 21G<196 260> -200 21G<196 260> 152 64<84 196> 580 20G<20 84 196 260> 580 20G<20 84 196 260>
VStem: 20 64<216 600> 196 64<-200 152 216 600>
LayerCount: 2
Fore
SplineSet
20 600 m 5xb6
 84 600 l 5
 84 216 l 5
 196 216 l 5
 196 600 l 5
 260 600 l 5
 260 -200 l 5
 196 -200 l 5
 196 152 l 5
 20 152 l 5
 20 600 l 5xb6
EndSplineSet
Validated: 1
EndChar

StartChar: five
Encoding: 53 53 21
Width: 248
VWidth: -200
Flags: W
HStem: -200 64<20 164.03> 152 64<84.344 164.002> 536 64<84 228>
VStem: 20 64.2812<216.063 536> 164.094 63.6562<-135.938 151.937>
LayerCount: 2
Fore
SplineSet
20 600 m 5
 228 600 l 5
 228 536 l 5
 84 536 l 5
 84.28125 376 l 5
 84.28125 248 l 6
 84.28125 216.000976562 84.2880859375 216 116.25 216 c 6
 163.8125 216 l 6
 195.77734375 216 227.75 184 227.75 152 c 6
 227.75 -136 l 6
 227.75 -168 195.77734375 -200 163.8125 -200 c 6
 20 -200 l 5
 20 -136 l 5
 132.15625 -136 l 6
 164.06640625 -136 164.09375 -136 164.09375 -104.1640625 c 0
 164.09375 -104 l 6
 164.09375 120 l 6
 163.98828125 151.999023438 164.12109375 152 132.162109375 152 c 0
 132.15625 152 l 6
 83.9375 152 l 6
 51.97265625 152 20 184 20 216 c 6
 20 600 l 5
EndSplineSet
Validated: 524289
EndChar

StartChar: six
Encoding: 54 54 22
Width: 280
VWidth: -200
Flags: W
HStem: -200 64<83.9996 195.812> 152.005 63.9951<84.0119 195.828> 580 20G<20 83.7334> 580 20G<20 83.7334>
VStem: 20 63.9375<-135.93 151.939 216 600> 195.875 64.125<-135.938 151.941>
LayerCount: 2
Fore
SplineSet
20 600 m 5xec
 83.71875 600 l 5
 84 216 l 5
 196 216 l 6
 228 216 260 184 260 152 c 6
 260 -136 l 6
 260 -168 228.015625 -200 196.03125 -200 c 6
 84 -200 l 6
 52 -200 20 -168 20 -136 c 6
 20 600 l 5xec
110.3125 152 m 4
 83.958984375 151.83984375 83.9375 149.588867188 83.9375 119 c 6
 83.9375 -104 l 6
 83.9375 -135.825195312 83.953125 -136 115.413085938 -136 c 0
 115.9375 -136 l 6
 163.90625 -136 l 6
 195.859375 -136 195.875 -136 195.875 -104.09375 c 0
 195.875 -104 l 6
 195.875 121 l 6
 195.875 121.965820312 l 0
 195.875 151.999023438 195.708984375 152 164 152 c 6
 115.9375 152 l 6
 114.604492188 152 113.330078125 152.004882812 112.107421875 152.004882812 c 0
 111.49609375 152.004882812 110.8984375 152.00390625 110.3125 152 c 4
EndSplineSet
Validated: 524289
EndChar

StartChar: seven
Encoding: 55 55 23
Width: 306
VWidth: -200
Flags: W
HStem: -200 21G<223.906 286.656> -200 21G<223.906 286.656> 537.25 62.75<20 223.906>
VStem: 223.906 62.75<-200 537.25>
LayerCount: 2
Fore
SplineSet
20 600 m 5xb0
 286.65625 600 l 5
 286.65625 -200 l 5
 223.90625 -200 l 5
 223.90625 537.25 l 5
 20 537.25 l 5
 20 600 l 5xb0
EndSplineSet
Validated: 524289
EndChar

StartChar: eight
Encoding: 56 56 24
Width: 296
VWidth: -200
Flags: W
HStem: -200 64<84.049 211.937> 152.004 63.9961<84.0893 211.916> 536.004 63.9961<83.9616 211.937>
VStem: 20 64<-135.94 151.951 216.08 535.94> 212 64<-135.938 151.939 216.061 535.938>
LayerCount: 2
Fore
SplineSet
84 600 m 6
 212 600 l 6
 243.993164062 600 276 568 276 536 c 6
 276 216 l 5
 227.5 184 l 5
 276 152 l 5
 276 -136 l 6
 276 -168 259.993164062 -200 228 -200 c 6
 84 -200 l 6
 52 -200 20 -168 20 -136 c 6
 20 152 l 5
 84 184 l 5
 20 216 l 5
 20 536 l 6
 20.8876953125 567.987304688 52 600 84 600 c 6
110.3125 536 m 4
 86.251953125 535.89453125 83.9443359375 534.346679688 83.9443359375 511.920898438 c 0
 83.9443359375 509.526367188 83.970703125 506.893554688 84 504 c 6
 84 249 l 6
 84 216.37109375 84.0068359375 216 116 216 c 6
 179.5 216 l 6
 211.407226562 216 212 216 212 247 c 6
 212 504 l 6
 212 536 211.993164062 536 180 536 c 6
 116 536 l 6
 114.653320312 536 113.36328125 536.00390625 112.126953125 536.00390625 c 0
 111.508789062 536.00390625 110.904296875 536.002929688 110.3125 536 c 4
110.3125 152 m 4
 84.271484375 151.881835938 84 150.017578125 84 120.897460938 c 0
 84 120.27734375 84 119.645507812 84 119 c 6
 84 -104 l 6
 84 -105.334960938 l 0
 84 -136 84.2236328125 -136 116 -136 c 6
 180 -136 l 6
 211.994140625 -136 212 -136 212 -104 c 6
 212 121 l 6
 212 152 211.493164062 152 179.5 152 c 6
 116 152 l 6
 114.653320312 152 113.36328125 152.00390625 112.125976562 152.00390625 c 0
 111.5078125 152.00390625 110.903320312 152.002929688 110.3125 152 c 4
EndSplineSet
Validated: 524289
EndChar

StartChar: nine
Encoding: 57 57 25
Width: 280
VWidth: -200
Flags: W
HStem: -200 21G<196.265 260> -200 21G<196.265 260> 152 64<84.172 195.973> 536.004 63.9961<84.1769 196>
VStem: 20 64.125<216.059 535.951> 196.281 63.7188<-200 152 216.08 535.93>
LayerCount: 2
Fore
SplineSet
83.96875 600 m 6xbc
 196 600 l 6
 228 600 260 568 260 536 c 6
 260 -200 l 5
 196.28125 -200 l 5
 196 152 l 5
 84 152 l 6
 52 152 20 184 20 216 c 6
 20 536 l 6
 20 568 51.984375 600 83.96875 600 c 6xbc
110.46875 536 m 4
 84.134765625 535.8828125 84.125 534.002929688 84.125 504.06640625 c 0
 84.125 504 l 6
 84.125 247 l 6
 84.125 246.034179688 l 0
 84.125 216.000976562 84.291015625 216 116 216 c 6
 164.0625 216 l 6
 196.046875 216 196.0625 216.37109375 196.0625 249 c 6
 196.0625 504 l 6
 196.0625 535.825195312 196.046875 536 164.586914062 536 c 0
 164.0625 536 l 6
 116.09375 536 l 6
 114.760742188 536 113.486328125 536.00390625 112.263671875 536.00390625 c 0
 111.65234375 536.00390625 111.0546875 536.002929688 110.46875 536 c 4
EndSplineSet
Validated: 524289
EndChar

StartChar: colon
Encoding: 58 58 26
Width: 104
VWidth: -400
Flags: W
VStem: 20 64<-40 104 296 440>
LayerCount: 2
Fore
SplineSet
20 440 m 1
 84 440 l 1
 84 296 l 1
 20 296 l 1
 20 440 l 1
20 104 m 1
 84 104 l 1
 84 -40 l 1
 20 -40 l 1
 20 104 l 1
EndSplineSet
Validated: 1
EndChar

StartChar: semicolon
Encoding: 59 59 27
Width: 104
VWidth: -400
Flags: W
HStem: -200 21G<20 84> -200 21G<20 84>
VStem: 20 64<-200 104 296 440>
LayerCount: 2
Fore
SplineSet
20 440 m 1x20
 84 440 l 1
 84 296 l 1
 20 296 l 1
 20 440 l 1x20
20 104 m 1
 84 104 l 1
 84 -200 l 1
 20 -200 l 1xa0
 20 104 l 1
EndSplineSet
Validated: 1
EndChar

StartChar: less
Encoding: 60 60 28
Width: 328
VWidth: -200
Flags: W
VStem: 20 288
LayerCount: 2
Fore
SplineSet
308 520 m 5
 308 440 l 5
 68 184 l 5
 308 -40 l 5
 308 -120 l 5
 20 152 l 5
 20 216 l 5
 308 520 l 5
EndSplineSet
Validated: 1
EndChar

StartChar: equal
Encoding: 61 61 29
Width: 312
VWidth: -400
Flags: W
HStem: 88 64<20 292> 216 64<20 292>
VStem: 20 272<88 152 216 280>
LayerCount: 2
Fore
SplineSet
20 280 m 5
 292 280 l 5
 292 216 l 5
 20 216 l 5
 20 280 l 5
20 152 m 5
 292 152 l 5
 292 88 l 5
 20 88 l 5
 20 152 l 5
EndSplineSet
Validated: 1
EndChar

StartChar: greater
Encoding: 62 62 30
Width: 328
VWidth: -200
Flags: W
VStem: 20 288
LayerCount: 2
Fore
SplineSet
20 520 m 5
 308 216 l 5
 308 152 l 5
 20 -120 l 5
 20 -40 l 5
 260 184 l 5
 20 440 l 5
 20 520 l 5
EndSplineSet
Validated: 1
EndChar

StartChar: question
Encoding: 63 63 31
Width: 264
VWidth: -200
Flags: W
HStem: -200 80<20 84> 152 64<84.0774 179.949> 536 64<20 179.78>
VStem: 20 64<-200 -120 -72 151.592> 179.781 64.2188<216.056 535.955>
LayerCount: 2
Fore
SplineSet
20 600 m 5
 180.0625 600 l 6
 212.02734375 600 244 568 244 536 c 6
 244 208 l 6
 244 176 212.18359375 152 180.21875 152 c 6
 116 152 l 6
 84.03515625 152 84.046875 152 84 120 c 6
 84 -72 l 5
 20 -72 l 5
 20 150 l 6
 20 184 52 216 84 216 c 6
 148 216 l 6
 148.052734375 216 l 0
 178.828125 216 180.002929688 216.0078125 180.002929688 244.709960938 c 0
 180.002929688 245.766601562 180.001953125 246.86328125 180 248 c 6
 179.78125 384 l 5
 179.78125 512 l 6
 179.78125 512.795898438 l 0
 179.78125 535.998046875 179.604492188 536 148.015625 536 c 0
 148 536 l 6
 20 536 l 5
 20 600 l 5
20 -120 m 5
 84 -120 l 5
 84 -200 l 5
 20 -200 l 5
 20 -120 l 5
EndSplineSet
Validated: 524289
EndChar

StartChar: at
Encoding: 64 64 32
Width: 360
VWidth: -200
Flags: W
HStem: -200 64<83.8215 339> -24 64<195.508 275.179> 312.004 63.9961<195.485 275.214> 536 64<83.7865 275.182>
VStem: 20 63.75<-135.937 535.934> 131.656 63.7812<40.0626 311.954> 275.25 64.75<40.0626 311.934 376 535.934>
LayerCount: 2
Fore
SplineSet
83.84375 600 m 2
 275.15625 600 l 2
 307.10546875 600 339 568 339 536 c 2
 340 40 l 2
 340 8 308 -24 277 -24 c 2
 195.5 -24 l 2
 163.575195312 -24 131.65625 8 131.65625 40 c 2
 131.65625 312 l 2
 131.65625 344 164.000976562 376 195.5 376 c 2
 275.21875 376 l 1
 275.21875 504 l 2
 275.21875 505.0625 275.219726562 506.08984375 275.219726562 507.083007812 c 0
 275.219726562 535.76953125 274.706054688 536 244.049804688 536 c 0
 243.3125 536 l 2
 115.6875 536 l 2
 114.950195312 536 l 0
 84.240234375 536 83.7490234375 535.76953125 83.7490234375 506.946289062 c 0
 83.7490234375 505.99609375 83.75 505.013671875 83.75 504 c 1
 83.75 -104 l 2
 83.75 -135.998046875 83.97265625 -136 115.67578125 -136 c 0
 115.6875 -136 l 2
 340 -136 l 1
 339 -200 l 1
 83.84375 -200 l 2
 51.8935546875 -200 20 -168 20 -136 c 2
 20 536 l 2
 20 568 51.8935546875 600 83.84375 600 c 2
221.65625 312 m 0
 195.879882812 311.887695312 195.436523438 310.125 195.436523438 282.9921875 c 0
 195.436523438 282.02734375 195.4375 281.030273438 195.4375 280 c 2
 195.4375 72 l 2
 195.4375 40.001953125 195.62890625 40 227.33203125 40 c 0
 227.34375 40 l 2
 243.3125 40 l 2
 243.32421875 40 l 0
 275.02734375 40 275.25 40.001953125 275.25 72 c 2
 275.25 280 l 2
 275.25 281.004882812 275.250976562 281.978515625 275.250976562 282.921875 c 0
 275.250976562 311.76953125 274.764648438 312 244.049804688 312 c 0
 243.3125 312 l 2
 227.34375 312 l 2
 225.991210938 312 224.705078125 312.00390625 223.470703125 312.00390625 c 0
 222.853515625 312.00390625 222.249023438 312.002929688 221.65625 312 c 0
EndSplineSet
Validated: 524289
EndChar

StartChar: A
Encoding: 65 65 33
Width: 392
VWidth: -200
Flags: W
HStem: -200 21G<20 86.8309 305.169 372> -200 21G<20 86.8309 305.169 372> 72 48<135 257> 580 20G<144.8 247.2> 580 20G<144.8 247.2>
LayerCount: 2
Fore
SplineSet
148 600 m 1xb0
 244 600 l 1
 372 -200 l 1
 308 -200 l 1
 269.5 72 l 1
 122.5 72 l 1
 84 -200 l 1
 20 -200 l 1
 148 600 l 1xb0
196 520 m 1
 135 120 l 1
 257 120 l 1
 196 520 l 1
EndSplineSet
Validated: 524289
EndChar

StartChar: B
Encoding: 66 66 34
Width: 327
VWidth: -200
Flags: W
HStem: -200 64<84.0178 243.875> 168.004 63.9961<84.0581 243.865> 536.004 63.9961<83.9313 243.875>
VStem: 20 63.9688<-135.94 167.951 232.08 535.94> 243.938 63.9688<-135.938 167.939 232.061 535.938>
LayerCount: 2
Fore
SplineSet
20 600 m 5
 243.90625 600 l 6
 275.90625 600 307.90625 568 307.90625 536 c 6
 307.6875 232 l 5
 259.90625 200 l 5
 307.90625 168 l 5
 307.90625 -136 l 6
 307.90625 -168 275.90625 -200 243.90625 -200 c 6
 20 -200 l 5
 20 600 l 5
110.28125 536 m 4
 86.220703125 535.89453125 83.9140625 534.346679688 83.9140625 511.908203125 c 0
 83.9140625 509.516601562 83.939453125 506.888671875 83.96875 504 c 6
 83.96875 265 l 6
 83.96875 232.37109375 83.9755859375 232 115.96875 232 c 6
 211.71875 232 l 6
 243.62890625 232 243.9375 232 243.9375 263 c 6
 243.9375 504 l 6
 243.9375 536 243.930664062 536 211.9375 536 c 6
 115.96875 536 l 6
 114.622070312 536 113.33203125 536.00390625 112.095703125 536.00390625 c 0
 111.477539062 536.00390625 110.873046875 536.002929688 110.28125 536 c 4
110.28125 168 m 4
 84.2353515625 167.881835938 83.96875 166.016601562 83.96875 136.8671875 c 0
 83.96875 136.256835938 83.96875 135.634765625 83.96875 135 c 6
 83.96875 -104 l 6
 83.96875 -105.334960938 l 0
 83.96875 -136 84.1923828125 -136 115.96875 -136 c 6
 211.9375 -136 l 6
 243.930664062 -136 243.9375 -136 243.9375 -104 c 6
 243.9375 137 l 6
 243.9375 168 243.711914062 168 211.71875 168 c 6
 115.96875 168 l 6
 114.622070312 168 113.331054688 168.00390625 112.094726562 168.00390625 c 0
 111.4765625 168.00390625 110.872070312 168.002929688 110.28125 168 c 4
EndSplineSet
Validated: 524289
EndChar

StartChar: C
Encoding: 67 67 35
Width: 296
VWidth: -200
Flags: W
HStem: -200 64<84.0611 212> 535.906 63.9688<84.0625 212>
VStem: 20 64<-135.927 535.836> 212 64<-136 -40.0312 472 536>
LayerCount: 2
Back
SplineSet
227 600 m 6
 259 600.032226562 291 568 291 536 c 6
 291 472 l 5
 227 472 l 5
 227 536 l 5
 131 535.90625 l 6
 99 535.879882812 99 535.90234375 99 503.90625 c 6
 99 -104 l 6
 99 -136 99 -136.001953125 131 -136 c 6
 227 -136 l 5
 227 -40.03125 l 5
 291 -40 l 5
 291 -136 l 6
 291 -168 259 -200 227 -200 c 6
 99 -200 l 6
 67 -199.998046875 35 -168 35 -136 c 6
 35 536 l 6
 35 568 67 600.002929688 99 599.875 c 6
 227 600 l 6
EndSplineSet
Fore
SplineSet
212 600 m 6
 212.047851562 600 l 0
 244.032226562 600 276 567.984375 276 536 c 6
 276 472 l 5
 212 472 l 5
 212 536 l 5
 116 535.90625 l 6
 84 535.879882812 84 535.90234375 84 503.90625 c 6
 84 -104 l 6
 84 -135.75390625 84 -136 115.267578125 -136 c 0
 116 -136 l 6
 212 -136 l 5
 212 -40.03125 l 5
 276 -40 l 5
 276 -136 l 6
 276 -168 244 -200 212 -200 c 6
 84 -200 l 6
 52 -199.998046875 20 -168 20 -136 c 6
 20 536 l 6
 20 567.936523438 51.873046875 599.875 83.80859375 599.875 c 0
 84 599.875 l 6
 212 600 l 6
EndSplineSet
Validated: 524289
EndChar

StartChar: D
Encoding: 68 68 36
Width: 296
VWidth: -200
Flags: W
HStem: -200 64<83.9018 211.844> 536.004 63.9961<83.8118 211.869>
VStem: 20 63.8438<-135.958 535.961> 211.906 64.0938<-135.938 535.937>
LayerCount: 2
Fore
SplineSet
20 600 m 5
 211.9375 600 l 6
 243.962890625 600 276 568 276 536 c 6
 276 -136 l 6
 276 -168 243.962890625 -200 211.9375 -200 c 6
 20 -200 l 5
 20 600 l 5
109.84375 536 m 4
 85.36328125 535.896484375 83.810546875 534.447265625 83.810546875 514.111328125 c 0
 83.810546875 511.157226562 83.84375 507.8046875 83.84375 504 c 6
 83.84375 -104 l 6
 83.84375 -135.999023438 83.84765625 -136 113.494140625 -136 c 0
 113.5 -136 l 6
 180.125 -136 l 6
 180.13671875 -136 l 0
 211.897460938 -136 211.90625 -135.998046875 211.90625 -104.052734375 c 0
 211.90625 -104 l 5
 211.90625 504 l 6
 211.90625 505.03125 211.907226562 506.029296875 211.907226562 506.99609375 c 0
 211.907226562 535.8359375 211.405273438 536 180.430664062 536 c 0
 179.90625 536 l 6
 115.875 536 l 6
 114.444335938 536 113.071289062 536.00390625 111.76171875 536.00390625 c 0
 111.106445312 536.00390625 110.466796875 536.002929688 109.84375 536 c 4
EndSplineSet
Validated: 524289
EndChar

StartChar: E
Encoding: 69 69 37
Width: 280
VWidth: -200
Flags: W
HStem: -200 64<84 260> 168 64<84 260> 536 64<84 260>
VStem: 20 240<-200 -136 168 232 536 600> 20 64<-136 168 232 536>
CounterMasks: 1 e0
LayerCount: 2
Fore
SplineSet
20 600 m 5xf0
 260 600 l 5
 260 536 l 5xf0
 84 536 l 5
 84 232 l 5xe8
 260 232 l 5
 260 168 l 5xf0
 84 168 l 5
 84 -136 l 5xe8
 260 -136 l 5
 260 -200 l 5
 20 -200 l 5
 20 600 l 5xf0
EndSplineSet
Validated: 1
EndChar

StartChar: F
Encoding: 70 70 38
Width: 280
VWidth: -200
Flags: W
HStem: -200 21G<20 84> -200 21G<20 84> 168 64<84 260> 536 64<84 260>
VStem: 20 64<-200 168 232 536>
LayerCount: 2
Fore
SplineSet
20 600 m 5xb8
 260 600 l 5
 260 536 l 5
 84 536 l 5
 84 232 l 5
 260 232 l 5
 260 168 l 5
 84 168 l 5
 84 -104 l 5
 84 -200 l 5
 20 -200 l 5
 20 600 l 5xb8
EndSplineSet
Validated: 1
EndChar

StartChar: G
Encoding: 71 71 39
Width: 312
VWidth: -200
Flags: W
HStem: -200 64<84.0611 228> 168 64<164 228> 535.906 63.9688<84.0625 228>
VStem: 20 64<-135.927 535.837> 164 128<168 232> 228 64<-136 167.969 440 536>
LayerCount: 2
Fore
SplineSet
228 600 m 6xf4
 228.041992188 600 l 0
 260.029296875 600 292 567.987304688 292 536 c 6
 292 440 l 5
 228 440 l 5
 228 536 l 5
 116 535.90625 l 6
 84.0009765625 535.883789062 84 535.90234375 84 503.912109375 c 0
 84 503.90625 l 6
 84 -104 l 6
 84 -104.005859375 l 0
 84 -135.75390625 84.0009765625 -136 115.267578125 -136 c 0
 116 -136 l 6
 228 -136 l 5
 228 167.96875 l 5xf4
 164 168 l 5
 164 232 l 5
 292 232 l 5xf8
 292 -136 l 6
 292 -168.000976562 260.000976562 -200 228 -200 c 6
 84 -200 l 6
 51.9990234375 -199.998046875 20 -168.000976562 20 -136 c 6
 20 536 l 6
 20 567.936523438 51.87109375 599.875 83.8076171875 599.875 c 0
 84 599.875 l 6
 228 600 l 6xf4
EndSplineSet
Validated: 524289
EndChar

StartChar: H
Encoding: 72 72 40
Width: 288
VWidth: -200
Flags: W
HStem: -200 21G<20 84 204 268> -200 21G<20 84 204 268> 168 64<84 204> 580 20G<20 84 204 268> 580 20G<20 84 204 268>
VStem: 20 64<-200 168 232 600> 204 64<-200 168 232 600>
LayerCount: 2
Fore
SplineSet
20 600 m 5xb6
 84 600 l 5
 84 232 l 5
 204 232 l 5
 204 600 l 5
 268 600 l 5
 268 -200 l 5
 204 -200 l 5
 204 168 l 5
 84 168 l 5
 84 -200 l 5
 20 -200 l 5
 20 600 l 5xb6
EndSplineSet
Validated: 1
EndChar

StartChar: J
Encoding: 74 74 41
Width: 280
VWidth: -200
Flags: W
HStem: -200 64<84.071 195.957> 580 20G<196 260> 580 20G<196 260>
VStem: 20 64<-135.937 24> 196 64<-135.974 600>
LayerCount: 2
Fore
SplineSet
196 600 m 5xd8
 260 600 l 5
 260 -136 l 6
 260 -168 244 -200 212 -200 c 6
 84 -200 l 6
 51.974609375 -200 20 -168 20 -136 c 6
 20 24 l 5
 84 24 l 5
 84 -104 l 6
 84 -135.998046875 84.2080078125 -136 115.98828125 -136 c 0
 116 -136 l 6
 166.5 -136 l 6
 166.505859375 -136 l 0
 195.850585938 -136 196 -135.999023438 196 -104.966796875 c 0
 196 -104 l 5
 196 600 l 5xd8
EndSplineSet
Validated: 524289
EndChar

StartChar: K
Encoding: 75 75 42
Width: 320
VWidth: -800
Flags: W
HStem: -200 21G<20 83.5292 235.504 299.53> -200 21G<20 83.5292 235.504 299.53> 168 64<84.001 220.253> 580 20G<20 84 235.088 299.997> 580 20G<20 84 235.088 299.997>
VStem: 20 63.501<-200 168 232 600> 220.003 63.9971<248 402.028> 235.504 64<-200 168 452.336 600>
LayerCount: 2
Fore
SplineSet
20 600 m 5xb5
 84 600 l 5
 84 248 l 6
 84 232 84 232 100 232 c 6
 204 232 l 6
 220 232 220.002929688 232 220.002929688 248 c 6
 235.997070312 600 l 5
 299.997070312 600 l 5
 284 248 l 5xb6
 252 216 l 5
 300 184 l 5
 299.50390625 -200 l 5
 235.50390625 -200 l 5
 236 152 l 6
 236 168 236 168 220 168 c 6
 99.9970703125 168 l 6
 83.9970703125 168 83.9970703125 168 83.9970703125 152 c 6
 83.5009765625 -200 l 5
 20 -200 l 5
 20 600 l 5xb5
EndSplineSet
Validated: 524289
EndChar

StartChar: L
Encoding: 76 76 43
Width: 264
VWidth: -200
Flags: W
HStem: -200 64<84 244> 580 20G<20 84> 580 20G<20 84>
VStem: 20 64<-136 600>
LayerCount: 2
Fore
SplineSet
20 600 m 5xd0
 84 600 l 5
 84 -136 l 5
 244 -136 l 5
 244 -200 l 5
 20 -200 l 5
 20 600 l 5xd0
EndSplineSet
Validated: 1
EndChar

StartChar: M
Encoding: 77 77 44
Width: 360
VWidth: -200
Flags: W
HStem: -200 21G<20 84 276 340> -200 21G<20 84 276 340> 580 20G<20 73.8382 286.172 340> 580 20G<20 73.8382 286.172 340>
VStem: 20 64<-200 312> 20 48<576.02 600> 276 64<-200 312> 292 48<575.98 600>
LayerCount: 2
Fore
SplineSet
20 600 m 5xa4
 68 600 l 5
 180.09375 216 l 5
 292 600 l 5
 340 600 l 5xa5
 340 -200 l 5
 276 -200 l 5
 276 312 l 5
 180 56 l 5
 84 312 l 5
 84 -200 l 5
 20 -200 l 5xaa
 20 600 l 5xa4
EndSplineSet
Validated: 524289
EndChar

StartChar: N
Encoding: 78 78 45
Width: 360
VWidth: -200
Flags: W
HStem: -200 21G<20 84.0312 269.806 340> -200 21G<20 84.0312 269.806 340> 580 20G<20 90.2436 275.969 340> 580 20G<20 90.2436 275.969 340>
VStem: 20 64.0312<-200 424 578.36 600> 275.969 64.0312<-200 -177.283 -24 600>
LayerCount: 2
Fore
SplineSet
20 600 m 5xac
 84.09375 600 l 5
 275.96875 -24 l 5
 275.96875 600 l 5
 340 600 l 5
 340 -200 l 5
 275.96875 -200 l 5
 83.6875 424 l 5
 84.03125 -200 l 5
 20 -200 l 5
 20 600 l 5xac
EndSplineSet
Validated: 524289
EndChar

StartChar: O
Encoding: 79 79 46
Width: 312
VWidth: -200
Flags: W
HStem: -200 64<84.0711 227.929> 536.004 63.9961<84.0476 227.963>
VStem: 20 64<-135.937 535.954> 228 64<-135.937 535.934>
LayerCount: 2
Fore
SplineSet
84 600 m 6
 196 600 l 5
 228 600 l 6
 260.025390625 600 292 568 292 536 c 6
 292 -136 l 6
 292 -168 260.025390625 -200 228 -200 c 6
 196 -200 l 5
 84 -200 l 6
 51.974609375 -200 20 -168 20 -136 c 6
 20 536 l 6
 20 568 51.974609375 600 84 600 c 6
110.28125 536 m 4
 84.4423828125 535.887695312 83.9990234375 534.125 83.9990234375 506.985351562 c 0
 83.9990234375 506.022460938 84 505.02734375 84 504 c 6
 84 -104 l 6
 84 -135.998046875 84.2099609375 -136 115.98828125 -136 c 0
 116 -136 l 6
 196 -136 l 6
 196.01171875 -136 l 0
 227.791992188 -136 228 -135.998046875 228 -104 c 6
 228 504 l 6
 228 505.03125 228.000976562 506.029296875 228.000976562 506.99609375 c 0
 228.000976562 535.76953125 227.500976562 536 196.739257812 536 c 0
 196 536 l 6
 116 536 l 6
 114.643554688 536 113.34765625 536.00390625 112.104492188 536.00390625 c 0
 111.483398438 536.00390625 110.875976562 536.002929688 110.28125 536 c 4
EndSplineSet
Validated: 524289
EndChar

StartChar: P
Encoding: 80 80 47
Width: 328
VWidth: -200
Flags: W
HStem: -200 21G<20 83.734> -200 21G<20 83.734> 168 64<84.0273 243.792> 536.229 63.7705<84.0466 243.812>
VStem: 20 63.9375<-200 168 232.08 536.229> 243.875 64.125<232 535.938>
LayerCount: 2
Fore
SplineSet
20 600 m 5xbc
 244.03125 600 l 6
 276.015625 600 308 568 308 536 c 6
 308 232 l 6
 308 200 276 168 244 168 c 6
 84 168 l 5
 83.71875 -200 l 5
 20 -200 l 5
 20 600 l 5xbc
101.53125 536.21875 m 4
 100.258789062 536.1953125 99.0615234375 536.125 97.9375 536 c 4
 84.4560546875 534.5 83.9375 528 83.9375 504 c 6
 83.9375 265 l 6
 83.9375 232.37109375 83.953125 232 115.9375 232 c 6
 229.90625 232 l 5
 243.387695312 233.4296875 243.875 240.119140625 243.875 263 c 6
 243.875 504 l 6
 243.875 504.09375 l 0
 243.875 536 243.859375 536 211.90625 536 c 6
 115.9375 536 l 6
 110.592773438 536 106.362304688 536.229492188 102.801757812 536.229492188 c 0
 102.368164062 536.229492188 101.9453125 536.2265625 101.53125 536.21875 c 4
EndSplineSet
Validated: 524289
EndChar

StartChar: Q
Encoding: 81 81 48
Width: 312
VWidth: -400
Flags: W
HStem: -200 64<84.0711 227.929> 104 64<180 228> 536.004 63.9961<84.0476 227.963>
VStem: 20 64<-135.937 535.954> 180 112<104 168> 228 64<-135.937 104 168 535.934>
LayerCount: 2
Fore
SplineSet
84 600 m 6xf4
 196 600 l 5
 228 600 l 6
 260.025390625 600 292 568 292 536 c 6
 292 -136 l 6
 292 -168 260.025390625 -200 228 -200 c 6
 196 -200 l 5
 84 -200 l 6
 51.974609375 -200 20 -168 20 -136 c 6
 20 536 l 6
 20 568 51.974609375 600 84 600 c 6xf4
110.28125 536 m 4
 84.4423828125 535.887695312 83.9990234375 534.125 83.9990234375 506.985351562 c 0
 83.9990234375 506.022460938 84 505.02734375 84 504 c 6
 84 -104 l 6
 84 -135.998046875 84.2099609375 -136 115.98828125 -136 c 0
 116 -136 l 6
 196 -136 l 6
 196.01171875 -136 l 0
 227.791992188 -136 228 -135.998046875 228 -104 c 6
 228 104 l 5xf4
 180 104 l 5
 180 168 l 5xf8
 228 168 l 5
 228 504 l 6
 228 505.03125 228.000976562 506.029296875 228.000976562 506.99609375 c 0
 228.000976562 535.76953125 227.500976562 536 196.739257812 536 c 0
 196 536 l 6
 116 536 l 6
 114.643554688 536 113.34765625 536.00390625 112.104492188 536.00390625 c 0
 111.483398438 536.00390625 110.875976562 536.002929688 110.28125 536 c 4
EndSplineSet
Validated: 524289
EndChar

StartChar: R
Encoding: 82 82 49
Width: 296
VWidth: -200
Flags: W
HStem: -200 21G<20 83.7374 211.656 275.616> -200 21G<20 83.7374 211.656 275.616> 168 64<84.0584 211.788> 536.229 63.7705<84.0754 211.812>
VStem: 20 63.9766<-200 167.931 232.079 536.229> 211.656 63.9375<-200 167.943 232 535.938>
LayerCount: 2
Fore
SplineSet
20 600 m 5xbc
 212.03125 600 l 6
 244.015625 600 276 568 276 536 c 6
 275.6875 232 l 5
 228 200 l 5
 276 168 l 5
 275.59375 -200 l 5
 211.65625 -200 l 5
 211.96875 137 l 6
 211.969726562 137.686523438 211.969726562 138.358398438 211.969726562 139.014648438 c 0
 211.969726562 168 211.025390625 168 179.75 168 c 6
 116.03125 168 l 6
 86.6396484375 168 83.9765625 168 83.9765625 143.143554688 c 0
 83.9765625 140.680664062 84.001953125 137.974609375 84.03125 135 c 6
 83.71875 -200 l 5
 20 -200 l 5
 20 600 l 5xbc
101.53125 536.21875 m 4
 100.258789062 536.1953125 99.0615234375 536.125 97.9375 536 c 4
 84.4560546875 534.5 83.96875 528 83.96875 504 c 6
 83.96875 265 l 6
 83.96875 264.904296875 l 0
 83.96875 232.370117188 83.984375 232 115.9375 232 c 6
 197.90625 232 l 5
 211.387695312 233.4296875 211.875 240.119140625 211.875 263 c 6
 211.875 504 l 6
 211.875 504.09375 l 0
 211.875 536 211.859375 536 179.90625 536 c 6
 115.9375 536 l 6
 110.592773438 536 106.362304688 536.229492188 102.801757812 536.229492188 c 0
 102.368164062 536.229492188 101.9453125 536.2265625 101.53125 536.21875 c 4
EndSplineSet
Validated: 524289
EndChar

StartChar: S
Encoding: 83 83 50
Width: 296
VWidth: -200
Flags: W
HStem: -200 64<84.0653 212.062> 168 64<84.2815 212.062> 536 64<84.2815 211.997>
VStem: 20 64.2188<-135.937 -40 232.062 535.938> 212.125 63.5625<-135.938 167.937 440 535.937>
CounterMasks: 1 e0
LayerCount: 2
Fore
SplineSet
83.9375 600 m 6
 211.75 600 l 6
 243.71484375 600 275.6875 568 275.6875 536 c 6
 276 440 l 5
 212.09375 440 l 5
 212.09375 503.875 l 6
 211.98828125 535.999023438 212 536 180.005859375 536 c 0
 180 536 l 6
 116.1875 536 l 6
 84.2255859375 536 84.21875 536 84.21875 504 c 6
 84.21875 312 l 5
 84.21875 264 l 6
 84.21875 232 84.2255859375 232 116.1875 232 c 6
 211.75 232 l 6
 243.71484375 232 275.6875 200 275.6875 168 c 6
 275.6875 -136 l 6
 275.6875 -168 243.71484375 -200 211.75 -200 c 6
 83.9375 -200 l 6
 51.97265625 -200 20 -168 20 -136 c 6
 20.3125 -40 l 5
 84.21875 -40 l 5
 84 -104 l 6
 84 -136 84.0166015625 -135.999023438 117.09375 -136 c 6
 180.15625 -136 l 6
 212.12109375 -136 212.125 -136 212.125 -104 c 6
 212.125 -72 l 5
 212.125 -24 l 5
 212.125 136 l 6
 212.125 167.999023438 212.12109375 168 180.162109375 168 c 0
 180.15625 168 l 6
 83.9375 168 l 6
 51.97265625 168 20 200 20 232 c 6
 20 536 l 6
 20 568 51.97265625 600 83.9375 600 c 6
EndSplineSet
Validated: 524289
EndChar

StartChar: T
Encoding: 84 84 51
Width: 328
VWidth: -200
Flags: W
HStem: -200 21G<132 196> -200 21G<132 196> 536 64<20 132 196 308>
VStem: 132 64<-200 536>
LayerCount: 2
Fore
SplineSet
20 600 m 5xb0
 308 600 l 5
 308 536 l 5
 196 536 l 5
 196 -200 l 5
 132 -200 l 5
 132 536 l 5
 20 536 l 5
 20 600 l 5xb0
EndSplineSet
Validated: 1
EndChar

StartChar: U
Encoding: 85 85 52
Width: 296
VWidth: -200
Flags: W
HStem: -200 64<84.0711 211.929> 580 20G<20 84 212 276> 580 20G<20 84 212 276>
VStem: 20 64<-135.937 600> 212 64<-135.937 600>
LayerCount: 2
Fore
SplineSet
20 600 m 5xd8
 84 600 l 5
 84 -104 l 6
 84 -135.998046875 84.2099609375 -136 115.98828125 -136 c 0
 116 -136 l 6
 180 -136 l 6
 180.01171875 -136 l 0
 211.791992188 -136 212 -135.998046875 212 -104 c 6
 212 600 l 5
 276 600 l 5
 276 -136 l 6
 275.65234375 -167.998046875 244.025390625 -200 212 -200 c 6
 164 -200 l 5
 84 -200 l 6
 51.974609375 -200 20 -168 20 -136 c 6
 20 600 l 5xd8
EndSplineSet
Validated: 524289
EndChar

StartChar: V
Encoding: 86 86 53
Width: 392
VWidth: -200
Flags: W
HStem: -200 21G<160.4 231.6> -200 21G<160.4 231.6> 580 20G<20 87.5443 304.456 372> 580 20G<20 87.5443 304.456 372>
LayerCount: 2
Fore
SplineSet
20 600 m 5xa0
 84 600 l 5
 196 -32 l 5
 308 600 l 5
 372 600 l 5
 228 -200 l 5
 164 -200 l 5
 20 600 l 5xa0
EndSplineSet
Validated: 1
EndChar

StartChar: W
Encoding: 87 87 54
Width: 360
VWidth: -200
Flags: W
HStem: -200 21G<20 73.8382 286.172 340> -200 21G<20 73.8382 286.172 340> 580 20G<20 84 276 340> 580 20G<20 84 276 340>
VStem: 20 64<88 600> 20 48<-200 -176.02> 276 64<88 600> 292 48<-200 -175.98>
LayerCount: 2
Fore
SplineSet
20 600 m 5xa8
 84 600 l 5
 84 88 l 5
 180 344 l 5
 276 88 l 5
 276 600 l 5
 340 600 l 5xaa
 340 -200 l 5
 292 -200 l 5
 180.09375 184 l 5
 68 -200 l 5
 20 -200 l 5xa5
 20 600 l 5xa8
EndSplineSet
Validated: 524289
EndChar

StartChar: backslash
Encoding: 92 92 55
Width: 279
VWidth: -200
Flags: W
HStem: -200.031 21G<191.6 259> -200.031 21G<191.6 259> 579.969 20G<20 87.4> 579.969 20G<20 87.4>
VStem: 20 239
LayerCount: 2
Fore
SplineSet
20 599.96875 m 5xa8
 83 599.96875 l 5
 259 -200.03125 l 5
 196 -200.03125 l 5
 20 599.96875 l 5xa8
EndSplineSet
Validated: 524289
EndChar

StartChar: X
Encoding: 88 88 56
Width: 360
VWidth: -200
Flags: W
HStem: -200 21G<20 89.7143 270.286 340> -200 21G<20 89.7143 270.286 340> 580 20G<20 89.2174 270.783 340> 580 20G<20 89.2174 270.783 340>
VStem: 20 64<-200 -175.5>
LayerCount: 2
Fore
SplineSet
20 600 m 5xa8
 84 600 l 5
 180 232 l 5
 276 600 l 5
 340 600 l 5
 244 184 l 5
 340 -200 l 5
 276 -200 l 5
 180 136 l 5
 84 -200 l 5
 20 -200 l 5
 116 184 l 5
 20 600 l 5xa8
EndSplineSet
Validated: 1
EndChar

StartChar: Y
Encoding: 89 89 57
Width: 392
VWidth: -200
Flags: W
HStem: -200 21G<164 228> -200 21G<164 228> 580 20G<20 90.087 301.913 372> 580 20G<20 90.087 301.913 372>
VStem: 20 64<577 600> 164 64<-200 143.333> 308 64<577 600>
CounterMasks: 1 0e
LayerCount: 2
Fore
SplineSet
20 600 m 5xae
 84 600 l 5
 196 232 l 5
 308 600 l 5
 372 600 l 5
 228 120 l 5
 228 56 l 5
 228 -200 l 5
 164 -200 l 5
 164 56 l 5
 164 120 l 5
 20 600 l 5xae
EndSplineSet
Validated: 1
EndChar

StartChar: w
Encoding: 119 119 58
Width: 360
VWidth: -200
Flags: W
HStem: -200 21G<20 73.8382 286.172 340> -200 21G<20 73.8382 286.172 340> 580 20G<20 84 276 340> 580 20G<20 84 276 340>
VStem: 20 64<88 600> 20 48<-200 -176.02> 276 64<88 600> 292 48<-200 -175.98>
LayerCount: 2
Fore
SplineSet
20 600 m 5xa8
 84 600 l 5
 84 88 l 5
 180 344 l 5
 276 88 l 5
 276 600 l 5
 340 600 l 5xaa
 340 -200 l 5
 292 -200 l 5
 180.09375 184 l 5
 68 -200 l 5
 20 -200 l 5xa5
 20 600 l 5xa8
EndSplineSet
Validated: 524289
EndChar

StartChar: Z
Encoding: 90 90 59
Width: 296
VWidth: -200
Flags: W
HStem: -200 64<107 276> 536 64<20 189>
VStem: 20 256<-200 -169.515 569.515 600>
LayerCount: 2
Fore
SplineSet
20 600 m 5
 180 600 l 5
 276 600 l 5
 107 -136 l 5
 276 -136 l 5
 276 -200 l 5
 84 -200 l 5
 20 -200 l 5
 189 536 l 5
 20 536 l 5
 20 600 l 5
EndSplineSet
Validated: 1
EndChar

StartChar: bracketleft
Encoding: 91 91 60
Width: 184
VWidth: -200
Flags: W
HStem: -200 64<84 164> 536 64<84 164>
VStem: 20 144<-200 -136 536 600> 20 64<-136 536>
LayerCount: 2
Fore
SplineSet
20 600 m 5xe0
 164 600 l 5
 164 536 l 5xe0
 84 536 l 5
 84 -136 l 5xd0
 164 -136 l 5
 164 -200 l 5
 20 -200 l 5
 20 600 l 5xe0
EndSplineSet
Validated: 1
EndChar

StartChar: bracketright
Encoding: 93 93 61
Width: 184
VWidth: -200
Flags: W
HStem: -200 64<20 100> 536 64<20 100>
VStem: 20 144<-200 -136 536 600> 100 64<-136 536>
LayerCount: 2
Fore
SplineSet
20 600 m 5xe0
 164 600 l 5
 164 -200 l 5
 20 -200 l 5
 20 -136 l 5xe0
 100 -136 l 5
 100 536 l 5xd0
 20 536 l 5
 20 600 l 5xe0
EndSplineSet
Validated: 1
EndChar

StartChar: asciicircum
Encoding: 94 94 62
Width: 404
VWidth: -200
Flags: W
HStem: 388 212
LayerCount: 2
Fore
SplineSet
20 388 m 5
 156 600 l 5
 247 600 l 5
 384 388 l 5
 308 388 l 5
 202 555 l 5
 96 388 l 5
 20 388 l 5
34 376 m 5
EndSplineSet
Validated: 1
EndChar

StartChar: underscore
Encoding: 95 95 63
Width: 408
VWidth: -200
Flags: W
HStem: -200 64<20 388>
LayerCount: 2
Fore
SplineSet
20 -136 m 5
 388 -136 l 5
 388 -200 l 5
 20 -200 l 5
 20 -136 l 5
EndSplineSet
Validated: 1
EndChar

StartChar: grave
Encoding: 96 96 64
Width: 152
VWidth: -200
Flags: W
HStem: 456 144<68 84>
VStem: 20 112
LayerCount: 2
Fore
SplineSet
20 600 m 5
 84 600 l 5
 132 456 l 5
 68 456 l 5
 20 600 l 5
EndSplineSet
Validated: 1
EndChar

StartChar: a
Encoding: 97 97 65
Width: 392
VWidth: -200
Flags: W
HStem: -200 21G<20 86.8309 305.169 372> -200 21G<20 86.8309 305.169 372> 72 48<135 257> 580 20G<144.8 247.2> 580 20G<144.8 247.2>
LayerCount: 2
Fore
SplineSet
148 600 m 5xb0
 244 600 l 5
 372 -200 l 5
 308 -200 l 5
 269.5 72 l 5
 122.5 72 l 5
 84 -200 l 5
 20 -200 l 5
 148 600 l 5xb0
196 520 m 5
 135 120 l 5
 257 120 l 5
 196 520 l 5
EndSplineSet
Validated: 524289
EndChar

StartChar: b
Encoding: 98 98 66
Width: 327
VWidth: -200
Flags: W
HStem: -200 64<84.0178 243.875> 168.004 63.9961<84.0581 243.865> 536.004 63.9961<83.9313 243.875>
VStem: 20 63.9688<-135.94 167.951 232.08 535.94> 243.938 63.9688<-135.938 167.939 232.061 535.938>
LayerCount: 2
Fore
SplineSet
20 600 m 5
 243.90625 600 l 6
 275.90625 600 307.90625 568 307.90625 536 c 6
 307.6875 232 l 5
 259.90625 200 l 5
 307.90625 168 l 5
 307.90625 -136 l 6
 307.90625 -168 275.90625 -200 243.90625 -200 c 6
 20 -200 l 5
 20 600 l 5
110.28125 536 m 4
 86.220703125 535.89453125 83.9140625 534.346679688 83.9140625 511.908203125 c 0
 83.9140625 509.516601562 83.939453125 506.888671875 83.96875 504 c 6
 83.96875 265 l 6
 83.96875 232.37109375 83.9755859375 232 115.96875 232 c 6
 211.71875 232 l 6
 243.62890625 232 243.9375 232 243.9375 263 c 6
 243.9375 504 l 6
 243.9375 536 243.930664062 536 211.9375 536 c 6
 115.96875 536 l 6
 114.622070312 536 113.33203125 536.00390625 112.095703125 536.00390625 c 0
 111.477539062 536.00390625 110.873046875 536.002929688 110.28125 536 c 4
110.28125 168 m 4
 84.2353515625 167.881835938 83.96875 166.016601562 83.96875 136.8671875 c 0
 83.96875 136.256835938 83.96875 135.634765625 83.96875 135 c 6
 83.96875 -104 l 6
 83.96875 -105.334960938 l 0
 83.96875 -136 84.1923828125 -136 115.96875 -136 c 6
 211.9375 -136 l 6
 243.930664062 -136 243.9375 -136 243.9375 -104 c 6
 243.9375 137 l 6
 243.9375 168 243.711914062 168 211.71875 168 c 6
 115.96875 168 l 6
 114.622070312 168 113.331054688 168.00390625 112.094726562 168.00390625 c 0
 111.4765625 168.00390625 110.872070312 168.002929688 110.28125 168 c 4
EndSplineSet
Validated: 524289
EndChar

StartChar: c
Encoding: 99 99 67
Width: 296
VWidth: -200
Flags: W
HStem: -200 64<84.0611 212> 535.906 63.9688<84.0625 212>
VStem: 20 64<-135.927 535.836> 212 64<-136 -40.0312 472 536>
LayerCount: 2
Fore
SplineSet
212 600 m 6
 212.047851562 600 l 0
 244.032226562 600 276 567.984375 276 536 c 6
 276 472 l 5
 212 472 l 5
 212 536 l 5
 116 535.90625 l 6
 84 535.879882812 84 535.90234375 84 503.90625 c 6
 84 -104 l 6
 84 -135.75390625 84 -136 115.267578125 -136 c 0
 116 -136 l 6
 212 -136 l 5
 212 -40.03125 l 5
 276 -40 l 5
 276 -136 l 6
 276 -168 244 -200 212 -200 c 6
 84 -200 l 6
 52 -199.998046875 20 -168 20 -136 c 6
 20 536 l 6
 20 567.936523438 51.873046875 599.875 83.80859375 599.875 c 0
 84 599.875 l 6
 212 600 l 6
EndSplineSet
Validated: 524289
EndChar

StartChar: d
Encoding: 100 100 68
Width: 296
VWidth: -200
Flags: W
HStem: -200 64<83.9018 211.844> 536.004 63.9961<83.8118 211.869>
VStem: 20 63.8438<-135.958 535.961> 211.906 64.0938<-135.938 535.937>
LayerCount: 2
Fore
SplineSet
20 600 m 5
 211.9375 600 l 6
 243.962890625 600 276 568 276 536 c 6
 276 -136 l 6
 276 -168 243.962890625 -200 211.9375 -200 c 6
 20 -200 l 5
 20 600 l 5
109.84375 536 m 4
 85.36328125 535.896484375 83.810546875 534.447265625 83.810546875 514.111328125 c 0
 83.810546875 511.157226562 83.84375 507.8046875 83.84375 504 c 6
 83.84375 -104 l 6
 83.84375 -135.999023438 83.84765625 -136 113.494140625 -136 c 0
 113.5 -136 l 6
 180.125 -136 l 6
 180.13671875 -136 l 0
 211.897460938 -136 211.90625 -135.998046875 211.90625 -104.052734375 c 0
 211.90625 -104 l 5
 211.90625 504 l 6
 211.90625 505.03125 211.907226562 506.029296875 211.907226562 506.99609375 c 0
 211.907226562 535.8359375 211.405273438 536 180.430664062 536 c 0
 179.90625 536 l 6
 115.875 536 l 6
 114.444335938 536 113.071289062 536.00390625 111.76171875 536.00390625 c 0
 111.106445312 536.00390625 110.466796875 536.002929688 109.84375 536 c 4
EndSplineSet
Validated: 524289
EndChar

StartChar: e
Encoding: 101 101 69
Width: 280
VWidth: -200
Flags: W
HStem: -200 64<84 260> 168 64<84 260> 536 64<84 260>
VStem: 20 240<-200 -136 168 232 536 600> 20 64<-136 168 232 536>
CounterMasks: 1 e0
LayerCount: 2
Fore
SplineSet
20 600 m 5xf0
 260 600 l 5
 260 536 l 5xf0
 84 536 l 5
 84 232 l 5xe8
 260 232 l 5
 260 168 l 5xf0
 84 168 l 5
 84 -136 l 5xe8
 260 -136 l 5
 260 -200 l 5
 20 -200 l 5
 20 600 l 5xf0
EndSplineSet
Validated: 1
EndChar

StartChar: f
Encoding: 102 102 70
Width: 280
VWidth: -200
Flags: W
HStem: -200 21G<20 84> -200 21G<20 84> 168 64<84 260> 536 64<84 260>
VStem: 20 64<-200 168 232 536>
LayerCount: 2
Fore
SplineSet
20 600 m 5xb8
 260 600 l 5
 260 536 l 5
 84 536 l 5
 84 232 l 5
 260 232 l 5
 260 168 l 5
 84 168 l 5
 84 -104 l 5
 84 -200 l 5
 20 -200 l 5
 20 600 l 5xb8
EndSplineSet
Validated: 1
EndChar

StartChar: g
Encoding: 103 103 71
Width: 312
VWidth: -200
Flags: W
HStem: -200 64<84.0611 228> 168 64<164 228> 535.906 63.9688<84.0625 228>
VStem: 20 64<-135.927 535.837> 164 128<168 232> 228 64<-136 167.969 440 536>
LayerCount: 2
Fore
SplineSet
228 600 m 6xf4
 228.041992188 600 l 0
 260.029296875 600 292 567.987304688 292 536 c 6
 292 440 l 5
 228 440 l 5
 228 536 l 5
 116 535.90625 l 6
 84.0009765625 535.883789062 84 535.90234375 84 503.912109375 c 0
 84 503.90625 l 6
 84 -104 l 6
 84 -104.005859375 l 0
 84 -135.75390625 84.0009765625 -136 115.267578125 -136 c 0
 116 -136 l 6
 228 -136 l 5
 228 167.96875 l 5xf4
 164 168 l 5
 164 232 l 5
 292 232 l 5xf8
 292 -136 l 6
 292 -168.000976562 260.000976562 -200 228 -200 c 6
 84 -200 l 6
 51.9990234375 -199.998046875 20 -168.000976562 20 -136 c 6
 20 536 l 6
 20 567.936523438 51.87109375 599.875 83.8076171875 599.875 c 0
 84 599.875 l 6
 228 600 l 6xf4
EndSplineSet
Validated: 524289
EndChar

StartChar: h
Encoding: 104 104 72
Width: 288
VWidth: -200
Flags: W
HStem: -200 21G<20 84 204 268> -200 21G<20 84 204 268> 168 64<84 204> 580 20G<20 84 204 268> 580 20G<20 84 204 268>
VStem: 20 64<-200 168 232 600> 204 64<-200 168 232 600>
LayerCount: 2
Fore
SplineSet
20 600 m 5xb6
 84 600 l 5
 84 232 l 5
 204 232 l 5
 204 600 l 5
 268 600 l 5
 268 -200 l 5
 204 -200 l 5
 204 168 l 5
 84 168 l 5
 84 -200 l 5
 20 -200 l 5
 20 600 l 5xb6
EndSplineSet
Validated: 1
EndChar

StartChar: i
Encoding: 105 105 73
Width: 104
VWidth: -200
Flags: W
HStem: -200 21G<20 84> -200 21G<20 84> 580 20G<20 84> 580 20G<20 84>
VStem: 20 64<-200 600>
LayerCount: 2
Fore
SplineSet
20 600 m 5xa8
 84 600 l 5
 84 -200 l 5
 20 -200 l 5
 20 600 l 5xa8
EndSplineSet
Validated: 1
EndChar

StartChar: j
Encoding: 106 106 74
Width: 280
VWidth: -200
Flags: W
HStem: -200 64<84.071 195.957> 580 20G<196 260> 580 20G<196 260>
VStem: 20 64<-135.937 24> 196 64<-135.974 600>
LayerCount: 2
Fore
SplineSet
196 600 m 5xd8
 260 600 l 5
 260 -136 l 6
 260 -168 244 -200 212 -200 c 6
 84 -200 l 6
 51.974609375 -200 20 -168 20 -136 c 6
 20 24 l 5
 84 24 l 5
 84 -104 l 6
 84 -135.998046875 84.2080078125 -136 115.98828125 -136 c 0
 116 -136 l 6
 166.5 -136 l 6
 166.505859375 -136 l 0
 195.850585938 -136 196 -135.999023438 196 -104.966796875 c 0
 196 -104 l 5
 196 600 l 5xd8
EndSplineSet
Validated: 524289
EndChar

StartChar: k
Encoding: 107 107 75
Width: 320
VWidth: -800
Flags: W
HStem: -200 21G<20 83.5292 235.504 299.53> -200 21G<20 83.5292 235.504 299.53> 168 64<84.001 220.253> 580 20G<20 84 235.088 299.997> 580 20G<20 84 235.088 299.997>
VStem: 20 63.501<-200 168 232 600> 220.003 63.9971<248 402.028> 235.504 64<-200 168 452.336 600>
LayerCount: 2
Fore
SplineSet
20 600 m 5xb5
 84 600 l 5
 84 248 l 6
 84 232 84 232 100 232 c 6
 204 232 l 6
 220 232 220.002929688 232 220.002929688 248 c 6
 235.997070312 600 l 5
 299.997070312 600 l 5
 284 248 l 5xb6
 252 216 l 5
 300 184 l 5
 299.50390625 -200 l 5
 235.50390625 -200 l 5
 236 152 l 6
 236 168 236 168 220 168 c 6
 99.9970703125 168 l 6
 83.9970703125 168 83.9970703125 168 83.9970703125 152 c 6
 83.5009765625 -200 l 5
 20 -200 l 5
 20 600 l 5xb5
EndSplineSet
Validated: 524289
EndChar

StartChar: l
Encoding: 108 108 76
Width: 264
VWidth: -200
Flags: W
HStem: -200 64<84 244> 580 20G<20 84> 580 20G<20 84>
VStem: 20 64<-136 600>
LayerCount: 2
Fore
SplineSet
20 600 m 5xd0
 84 600 l 5
 84 -136 l 5
 244 -136 l 5
 244 -200 l 5
 20 -200 l 5
 20 600 l 5xd0
EndSplineSet
Validated: 1
EndChar

StartChar: m
Encoding: 109 109 77
Width: 360
VWidth: -200
Flags: W
HStem: -200 21G<20 84 276 340> -200 21G<20 84 276 340> 580 20G<20 73.8382 286.172 340> 580 20G<20 73.8382 286.172 340>
VStem: 20 64<-200 312> 20 48<576.02 600> 276 64<-200 312> 292 48<575.98 600>
LayerCount: 2
Fore
SplineSet
20 600 m 5xa4
 68 600 l 5
 180.09375 216 l 5
 292 600 l 5
 340 600 l 5xa5
 340 -200 l 5
 276 -200 l 5
 276 312 l 5
 180 56 l 5
 84 312 l 5
 84 -200 l 5
 20 -200 l 5xaa
 20 600 l 5xa4
EndSplineSet
Validated: 524289
EndChar

StartChar: n
Encoding: 110 110 78
Width: 360
VWidth: -200
Flags: W
HStem: -200 21G<20 84.0312 269.806 340> -200 21G<20 84.0312 269.806 340> 580 20G<20 90.2436 275.969 340> 580 20G<20 90.2436 275.969 340>
VStem: 20 64.0312<-200 424 578.36 600> 275.969 64.0312<-200 -177.283 -24 600>
LayerCount: 2
Fore
SplineSet
20 600 m 5xac
 84.09375 600 l 5
 275.96875 -24 l 5
 275.96875 600 l 5
 340 600 l 5
 340 -200 l 5
 275.96875 -200 l 5
 83.6875 424 l 5
 84.03125 -200 l 5
 20 -200 l 5
 20 600 l 5xac
EndSplineSet
Validated: 524289
EndChar

StartChar: o
Encoding: 111 111 79
Width: 312
VWidth: -200
Flags: W
HStem: -200 64<84.0711 227.929> 536.004 63.9961<84.0476 227.963>
VStem: 20 64<-135.937 535.954> 228 64<-135.937 535.934>
LayerCount: 2
Fore
SplineSet
84 600 m 6
 196 600 l 5
 228 600 l 6
 260.025390625 600 292 568 292 536 c 6
 292 -136 l 6
 292 -168 260.025390625 -200 228 -200 c 6
 196 -200 l 5
 84 -200 l 6
 51.974609375 -200 20 -168 20 -136 c 6
 20 536 l 6
 20 568 51.974609375 600 84 600 c 6
110.28125 536 m 4
 84.4423828125 535.887695312 83.9990234375 534.125 83.9990234375 506.985351562 c 0
 83.9990234375 506.022460938 84 505.02734375 84 504 c 6
 84 -104 l 6
 84 -135.998046875 84.2099609375 -136 115.98828125 -136 c 0
 116 -136 l 6
 196 -136 l 6
 196.01171875 -136 l 0
 227.791992188 -136 228 -135.998046875 228 -104 c 6
 228 504 l 6
 228 505.03125 228.000976562 506.029296875 228.000976562 506.99609375 c 0
 228.000976562 535.76953125 227.500976562 536 196.739257812 536 c 0
 196 536 l 6
 116 536 l 6
 114.643554688 536 113.34765625 536.00390625 112.104492188 536.00390625 c 0
 111.483398438 536.00390625 110.875976562 536.002929688 110.28125 536 c 4
EndSplineSet
Validated: 524289
EndChar

StartChar: p
Encoding: 112 112 80
Width: 328
VWidth: -200
Flags: W
HStem: -200 21G<20 83.734> -200 21G<20 83.734> 168 64<84.0273 243.792> 536.229 63.7705<84.0466 243.812>
VStem: 20 63.9375<-200 168 232.08 536.229> 243.875 64.125<232 535.938>
LayerCount: 2
Fore
SplineSet
20 600 m 5xbc
 244.03125 600 l 6
 276.015625 600 308 568 308 536 c 6
 308 232 l 6
 308 200 276 168 244 168 c 6
 84 168 l 5
 83.71875 -200 l 5
 20 -200 l 5
 20 600 l 5xbc
101.53125 536.21875 m 4
 100.258789062 536.1953125 99.0615234375 536.125 97.9375 536 c 4
 84.4560546875 534.5 83.9375 528 83.9375 504 c 6
 83.9375 265 l 6
 83.9375 232.37109375 83.953125 232 115.9375 232 c 6
 229.90625 232 l 5
 243.387695312 233.4296875 243.875 240.119140625 243.875 263 c 6
 243.875 504 l 6
 243.875 504.09375 l 0
 243.875 536 243.859375 536 211.90625 536 c 6
 115.9375 536 l 6
 110.592773438 536 106.362304688 536.229492188 102.801757812 536.229492188 c 0
 102.368164062 536.229492188 101.9453125 536.2265625 101.53125 536.21875 c 4
EndSplineSet
Validated: 524289
EndChar

StartChar: q
Encoding: 113 113 81
Width: 312
VWidth: -400
Flags: W
HStem: -200 64<84.0711 227.929> 104 64<180 228> 536.004 63.9961<84.0476 227.963>
VStem: 20 64<-135.937 535.954> 180 112<104 168> 228 64<-135.937 104 168 535.934>
LayerCount: 2
Fore
SplineSet
84 600 m 6xf4
 196 600 l 5
 228 600 l 6
 260.025390625 600 292 568 292 536 c 6
 292 -136 l 6
 292 -168 260.025390625 -200 228 -200 c 6
 196 -200 l 5
 84 -200 l 6
 51.974609375 -200 20 -168 20 -136 c 6
 20 536 l 6
 20 568 51.974609375 600 84 600 c 6xf4
110.28125 536 m 4
 84.4423828125 535.887695312 83.9990234375 534.125 83.9990234375 506.985351562 c 0
 83.9990234375 506.022460938 84 505.02734375 84 504 c 6
 84 -104 l 6
 84 -135.998046875 84.2099609375 -136 115.98828125 -136 c 0
 116 -136 l 6
 196 -136 l 6
 196.01171875 -136 l 0
 227.791992188 -136 228 -135.998046875 228 -104 c 6
 228 104 l 5xf4
 180 104 l 5
 180 168 l 5xf8
 228 168 l 5
 228 504 l 6
 228 505.03125 228.000976562 506.029296875 228.000976562 506.99609375 c 0
 228.000976562 535.76953125 227.500976562 536 196.739257812 536 c 0
 196 536 l 6
 116 536 l 6
 114.643554688 536 113.34765625 536.00390625 112.104492188 536.00390625 c 0
 111.483398438 536.00390625 110.875976562 536.002929688 110.28125 536 c 4
EndSplineSet
Validated: 524289
EndChar

StartChar: r
Encoding: 114 114 82
Width: 296
VWidth: -200
Flags: W
HStem: -200 21G<20 83.7374 211.656 275.616> -200 21G<20 83.7374 211.656 275.616> 168 64<84.0584 211.788> 536.229 63.7705<84.0754 211.812>
VStem: 20 63.9766<-200 167.931 232.079 536.229> 211.656 63.9375<-200 167.943 232 535.938>
LayerCount: 2
Fore
SplineSet
20 600 m 5xbc
 212.03125 600 l 6
 244.015625 600 276 568 276 536 c 6
 275.6875 232 l 5
 228 200 l 5
 276 168 l 5
 275.59375 -200 l 5
 211.65625 -200 l 5
 211.96875 137 l 6
 211.969726562 137.686523438 211.969726562 138.358398438 211.969726562 139.014648438 c 0
 211.969726562 168 211.025390625 168 179.75 168 c 6
 116.03125 168 l 6
 86.6396484375 168 83.9765625 168 83.9765625 143.143554688 c 0
 83.9765625 140.680664062 84.001953125 137.974609375 84.03125 135 c 6
 83.71875 -200 l 5
 20 -200 l 5
 20 600 l 5xbc
101.53125 536.21875 m 4
 100.258789062 536.1953125 99.0615234375 536.125 97.9375 536 c 4
 84.4560546875 534.5 83.96875 528 83.96875 504 c 6
 83.96875 265 l 6
 83.96875 264.904296875 l 0
 83.96875 232.370117188 83.984375 232 115.9375 232 c 6
 197.90625 232 l 5
 211.387695312 233.4296875 211.875 240.119140625 211.875 263 c 6
 211.875 504 l 6
 211.875 504.09375 l 0
 211.875 536 211.859375 536 179.90625 536 c 6
 115.9375 536 l 6
 110.592773438 536 106.362304688 536.229492188 102.801757812 536.229492188 c 0
 102.368164062 536.229492188 101.9453125 536.2265625 101.53125 536.21875 c 4
EndSplineSet
Validated: 524289
EndChar

StartChar: s
Encoding: 115 115 83
Width: 296
VWidth: -200
Flags: W
HStem: -200 64<84.0653 212.062> 168 64<84.2815 212.062> 536 64<84.2815 211.997>
VStem: 20 64.2188<-135.937 -40 232.062 535.938> 212.125 63.5625<-135.938 167.937 440 535.937>
CounterMasks: 1 e0
LayerCount: 2
Fore
SplineSet
83.9375 600 m 6
 211.75 600 l 6
 243.71484375 600 275.6875 568 275.6875 536 c 6
 276 440 l 5
 212.09375 440 l 5
 212.09375 503.875 l 6
 211.98828125 535.999023438 212 536 180.005859375 536 c 0
 180 536 l 6
 116.1875 536 l 6
 84.2255859375 536 84.21875 536 84.21875 504 c 6
 84.21875 312 l 5
 84.21875 264 l 6
 84.21875 232 84.2255859375 232 116.1875 232 c 6
 211.75 232 l 6
 243.71484375 232 275.6875 200 275.6875 168 c 6
 275.6875 -136 l 6
 275.6875 -168 243.71484375 -200 211.75 -200 c 6
 83.9375 -200 l 6
 51.97265625 -200 20 -168 20 -136 c 6
 20.3125 -40 l 5
 84.21875 -40 l 5
 84 -104 l 6
 84 -136 84.0166015625 -135.999023438 117.09375 -136 c 6
 180.15625 -136 l 6
 212.12109375 -136 212.125 -136 212.125 -104 c 6
 212.125 -72 l 5
 212.125 -24 l 5
 212.125 136 l 6
 212.125 167.999023438 212.12109375 168 180.162109375 168 c 0
 180.15625 168 l 6
 83.9375 168 l 6
 51.97265625 168 20 200 20 232 c 6
 20 536 l 6
 20 568 51.97265625 600 83.9375 600 c 6
EndSplineSet
Validated: 524289
EndChar

StartChar: t
Encoding: 116 116 84
Width: 328
VWidth: -200
Flags: W
HStem: -200 21G<132 196> -200 21G<132 196> 536 64<20 132 196 308>
VStem: 132 64<-200 536>
LayerCount: 2
Fore
SplineSet
20 600 m 5xb0
 308 600 l 5
 308 536 l 5
 196 536 l 5
 196 -200 l 5
 132 -200 l 5
 132 536 l 5
 20 536 l 5
 20 600 l 5xb0
EndSplineSet
Validated: 1
EndChar

StartChar: u
Encoding: 117 117 85
Width: 296
VWidth: -200
Flags: W
HStem: -200 64<84.0711 211.929> 580 20G<20 84 212 276> 580 20G<20 84 212 276>
VStem: 20 64<-135.937 600> 212 64<-135.937 600>
LayerCount: 2
Fore
SplineSet
20 600 m 5xd8
 84 600 l 5
 84 -104 l 6
 84 -135.998046875 84.2099609375 -136 115.98828125 -136 c 0
 116 -136 l 6
 180 -136 l 6
 180.01171875 -136 l 0
 211.791992188 -136 212 -135.998046875 212 -104 c 6
 212 600 l 5
 276 600 l 5
 276 -136 l 6
 275.65234375 -167.998046875 244.025390625 -200 212 -200 c 6
 164 -200 l 5
 84 -200 l 6
 51.974609375 -200 20 -168 20 -136 c 6
 20 600 l 5xd8
EndSplineSet
Validated: 524289
EndChar

StartChar: v
Encoding: 118 118 86
Width: 392
VWidth: -200
Flags: W
HStem: -200 21G<160.4 231.6> -200 21G<160.4 231.6> 580 20G<20 87.5443 304.456 372> 580 20G<20 87.5443 304.456 372>
LayerCount: 2
Fore
SplineSet
20 600 m 5xa0
 84 600 l 5
 196 -32 l 5
 308 600 l 5
 372 600 l 5
 228 -200 l 5
 164 -200 l 5
 20 600 l 5xa0
EndSplineSet
Validated: 1
EndChar

StartChar: x
Encoding: 120 120 87
Width: 360
VWidth: -200
Flags: W
HStem: -200 21G<20 89.7143 270.286 340> -200 21G<20 89.7143 270.286 340> 580 20G<20 89.2174 270.783 340> 580 20G<20 89.2174 270.783 340>
VStem: 20 64<-200 -175.5>
LayerCount: 2
Fore
SplineSet
20 600 m 5xa8
 84 600 l 5
 180 232 l 5
 276 600 l 5
 340 600 l 5
 244 184 l 5
 340 -200 l 5
 276 -200 l 5
 180 136 l 5
 84 -200 l 5
 20 -200 l 5
 116 184 l 5
 20 600 l 5xa8
EndSplineSet
Validated: 1
EndChar

StartChar: y
Encoding: 121 121 88
Width: 392
VWidth: -200
Flags: W
HStem: -200 21G<164 228> -200 21G<164 228> 580 20G<20 90.087 301.913 372> 580 20G<20 90.087 301.913 372>
VStem: 20 64<577 600> 164 64<-200 143.333> 308 64<577 600>
CounterMasks: 1 0e
LayerCount: 2
Fore
SplineSet
20 600 m 5xae
 84 600 l 5
 196 232 l 5
 308 600 l 5
 372 600 l 5
 228 120 l 5
 228 56 l 5
 228 -200 l 5
 164 -200 l 5
 164 56 l 5
 164 120 l 5
 20 600 l 5xae
EndSplineSet
Validated: 1
EndChar

StartChar: z
Encoding: 122 122 89
Width: 296
VWidth: -200
Flags: W
HStem: -200 64<107 276> 536 64<20 189>
VStem: 20 256<-200 -169.515 569.515 600>
LayerCount: 2
Fore
SplineSet
20 600 m 5
 180 600 l 5
 276 600 l 5
 107 -136 l 5
 276 -136 l 5
 276 -200 l 5
 84 -200 l 5
 20 -200 l 5
 189 536 l 5
 20 536 l 5
 20 600 l 5
EndSplineSet
Validated: 1
EndChar

StartChar: braceleft
Encoding: 123 123 90
Width: 232
VWidth: -200
Flags: W
HStem: -200 64<84 212> 536 64<84 212>
VStem: 20 64<-136 152 216 536>
LayerCount: 2
Fore
SplineSet
84 600 m 6
 212 600 l 5
 212 536 l 5
 84 536 l 5
 84 189 l 5
 84 174 l 5
 84 -136 l 5
 212 -136 l 5
 212 -200 l 5
 84 -200 l 6
 83.9697265625 -200 l 0
 51.9794921875 -200 20 -167.990234375 20 -136 c 6
 20 152 l 5
 83 177 l 5
 20 216 l 5
 20 539 l 6
 20 539.002929688 l 0
 20 568.001953125 52.0009765625 600 84 600 c 6
EndSplineSet
Validated: 524289
EndChar

StartChar: bar
Encoding: 124 124 91
Width: 104
VWidth: -400
Flags: W
HStem: -200 21G<20 84> -200 21G<20 84> 580 20G<20 84> 580 20G<20 84>
VStem: 20 64<-200 600>
LayerCount: 2
Fore
SplineSet
20 600 m 5xa8
 84 600 l 5
 84 -200 l 5
 20 -200 l 5
 20 600 l 5xa8
EndSplineSet
Validated: 1
EndChar

StartChar: braceright
Encoding: 125 125 92
Width: 232
VWidth: -200
Flags: W
HStem: -200 64<20 148> 536 64<20 148>
VStem: 148 64<-136 152 216 536>
LayerCount: 2
Fore
SplineSet
148 600 m 6
 179.999023438 600 212 568.001953125 212 539.002929688 c 0
 212 539 l 6
 212 216 l 5
 149 177 l 5
 212 152 l 5
 212 -136 l 6
 212 -167.990234375 180.020507812 -200 148.030273438 -200 c 0
 148 -200 l 6
 20 -200 l 5
 20 -136 l 5
 148 -136 l 5
 148 174 l 5
 148 189 l 5
 148 536 l 5
 20 536 l 5
 20 600 l 5
 148 600 l 6
EndSplineSet
Validated: 524289
EndChar

StartChar: asciitilde
Encoding: 126 126 93
Width: 392
VWidth: -200
Flags: W
HStem: 165 105
LayerCount: 2
Fore
SplineSet
142 270 m 5
 251 229 l 5
 372 256 l 5
 372 192 l 5
 251 165 l 5
 142 206 l 5
 20 165 l 5
 20 229 l 5
 142 270 l 5
EndSplineSet
Validated: 1
EndChar

